<svg xmlns="http://www.w3.org/2000/svg" viewBox="0 0 1440 320">
	<defs>
	  <pattern id="img1" patternUnits="userSpaceOnUse" width="100" height="100">
		<image href="Nuage.png" x="0" y="0" width="100" height="100" />
	  </pattern>
	</defs>
	<path fill="url(#img1)" fill-opacity="1" d="M0,160L48,149.3C96,139,192,117,288,128C384,139,480,181,576,213.3C672,245,768,267,864,256C960,245,1056,203,1152,186.7C1248,171,1344,181,1392,186.7L1440,192L1440,320L1392,320C1344,320,1248,320,1152,320C1056,320,960,320,864,320C768,320,672,320,576,320C480,320,384,320,288,320C192,320,96,320,48,320L0,320Z"></path>
</svg>