<svg height="496pt" fill="#FFFFFF" viewBox="0 0 496.00182 496" width="496pt" xmlns="http://www.w3.org/2000/svg"><path d="m304 384h-88.40625c-3.902344-50.960938-44.632812-91.6875-95.59375-95.589844v-8.410156c0-4.414062 3.59375-8 8-8h24v-16h-24c-13.230469 0-24 10.769531-24 24v8.410156c-53.605469 4.109375-96 48.949219-96 103.589844 0 57.34375 46.65625 104 104 104 16.746094 0 33.144531-4.214844 47.890625-11.886719 14.398437 7.550781 30.75 11.886719 48.109375 11.886719 57.347656 0 104-46.65625 104-104 0-4.421875-3.582031-8-8-8zm-140.78125 41.472656c-5.488281-7.320312-9.21875-16.007812-10.578125-25.472656h36.050781zm44.78125-22.160156 33.472656 33.472656c-9.351562 7.007813-20.910156 11.214844-33.472656 11.214844-12.558594 0-24.117188-4.207031-33.46875-11.214844zm44.785156 22.160156-25.472656-25.472656h36.050781c-1.363281 9.464844-5.089843 18.152344-10.578125 25.472656zm-140.785156 54.527344c-48.519531 0-88-39.480469-88-88s39.480469-88 88-88c45.824219 0 83.539062 35.21875 87.59375 80h-87.59375c-4.414062 0-8 3.578125-8 8 0 33.242188 15.738281 62.808594 40.082031 81.863281-10.175781 3.976563-21.039062 6.136719-32.082031 6.136719zm96 0c-45.832031 0-83.582031-35.207031-87.636719-80h16.109375c4 35.945312 34.539063 64 71.527344 64 36.992188 0 67.539062-28.054688 71.53125-64h16.109375c-4.054687 44.792969-41.808594 80-87.640625 80zm0 0"/><path d="m144 320h-16c0 8.824219-7.175781 16-16 16-8.820312 0-16-7.175781-16-16h-16c0 17.648438 14.355469 32 32 32 17.648438 0 32-14.351562 32-32zm0 0"/><path d="m392 184h16v24h-16zm0 0"/><path d="m354.34375 186.34375 15.996094-15.996094 11.3125 11.3125-15.996094 15.996094zm0 0"/><path d="m418.34375 181.660156 11.3125-11.3125 15.996094 15.996094-11.3125 11.3125zm0 0"/><path d="m29.859375 83.730469c9.886719 7.910156 22.308594 12.269531 34.972656 12.269531h55.167969c3.523438 0 6.640625-2.3125 7.65625-5.679688 1.027344-3.367187-.285156-7.015624-3.214844-8.976562l-35.902344-23.933594c-9.234374-6.152344-19.976562-9.410156-31.074218-9.410156h-49.464844c-3.398438 0-6.421875 2.144531-7.550781 5.351562-1.121094 3.210938-.101563 6.777344 2.550781 8.898438zm27.605469-19.730469c7.929687 0 15.601562 2.328125 22.191406 6.722656l13.921875 9.277344h-28.746094c-9.046875 0-17.917969-3.109375-24.988281-8.765625l-9.035156-7.234375zm0 0"/><path d="m136 48h49.464844c11.097656 0 21.832031-3.253906 31.066406-9.40625l35.902344-23.9375c2.9375-1.960938 4.238281-5.597656 3.214844-8.976562-1.007813-3.367188-4.125-5.679688-7.648438-5.679688h-55.167969c-12.664062 0-25.085937 4.359375-34.980469 12.273438l-26.851562 21.480468c-2.652344 2.117188-3.671875 5.6875-2.550781 8.894532 1.128906 3.207031 4.152343 5.351562 7.550781 5.351562zm31.851562-23.230469c7.070313-5.65625 15.941407-8.769531 24.980469-8.769531h28.746094l-13.921875 9.28125c-6.589844 4.390625-14.261719 6.71875-22.191406 6.71875h-26.65625zm0 0"/><path d="m488 224h-24.542969c20.3125-17.96875 32.542969-44.101562 32.542969-72 0-4.414062-3.582031-8-8-8h-26.78125c1.800781-5.085938 2.78125-10.464844 2.78125-16 0-23.734375-17.335938-43.445312-40-47.277344v-6.785156c0-4.273438 1.664062-8.296875 4.691406-11.320312l8.964844-8.96875-11.308594-11.3125-8.96875 8.96875c-6.050781 6.046874-9.378906 14.089843-9.378906 22.640624v6.785157c-13.328125 2.246093-24.804688 9.964843-32 20.796875-7.191406-10.832032-18.671875-18.550782-32-20.796875v-6.785157c0-4.273437 1.664062-8.296874 4.691406-11.320312l8.964844-8.96875-11.308594-11.3125-8.96875 8.96875c-6.050781 6.039062-9.378906 14.082031-9.378906 22.632812v6.785157c-13.328125 2.246093-24.804688 9.964843-32 20.796875-7.191406-10.832032-18.671875-18.550782-32-20.796875v-6.785157c0-4.273437 1.664062-8.296874 4.691406-11.320312l8.964844-8.96875-11.308594-11.3125-8.96875 8.96875c-6.050781 6.039062-9.378906 14.082031-9.378906 22.632812v6.785157c-18.988281 3.207031-34.199219 17.566406-38.636719 36.117187-13.617187 6.050782-24.363281 17.351563-29.679687 31.34375-7.609375-3.503906-16.019532-4.972656-24.914063-3.855468-9.085937-19.597657-28.679687-32.335938-50.769531-32.335938-28.40625 0-51.941406 21.265625-55.527344 48.714844-18.472656 3.527344-32.472656 19.796875-32.472656 39.285156 0 9.039062 3.128906 17.296875 8.210938 24h-16.210938c-4.414062 0-8 3.585938-8 8v32c0 4.425781 3.585938 8 8 8h8v32h16v-32h56v-16h-72v-16h464v16h-312v16h296v48c0 70.578125-57.421875 128-128 128h-24v16h24c79.402344 0 144-64.597656 144-144v-48h8c4.417969 0 8-3.574219 8-8v-32c0-4.414062-3.582031-8-8-8zm-53.277344 0h-69.441406c-25.113281-12.144531-42.101562-36.535156-44.878906-64h159.199218c-2.785156 27.472656-19.769531 51.863281-44.878906 64zm-18.722656-128c17.648438 0 32 14.351562 32 32 0 5.714844-1.550781 11.152344-4.367188 16h-55.253906c-2.824218-4.847656-4.378906-10.285156-4.378906-16 0-17.648438 14.355469-32 32-32zm-80 0c17.648438 0 32 14.351562 32 32 0 5.714844-1.550781 11.152344-4.367188 16h-51.632812c-1.109375 0-2.167969.234375-3.125.640625-3.050781-4.953125-4.875-10.601563-4.875-16.640625 0-17.648438 14.355469-32 32-32zm-80 0c17.648438 0 32 14.351562 32 32 0 5.824219-1.613281 11.359375-4.550781 16.289062-.230469.023438-.457031.023438-.679688.046876-9.085937-19.597657-28.679687-32.335938-50.769531-32.335938-1.222656 0-2.429688.089844-3.636719.167969 5.527344-9.605469 15.78125-16.167969 27.636719-16.167969zm-224 104c0-13.230469 10.769531-24 24-24 4.417969 0 8-3.582031 8-8 0-22.054688 17.945312-40 40-40 17.515625 0 32.84375 11.21875 38.128906 27.90625 1.289063 4.070312 5.535156 6.421875 9.679688 5.3125 3.128906-.832031 5.730468-1.21875 8.191406-1.21875 3.960938 0 7.777344.785156 11.378906 2.160156-15.863281 5.3125-27.378906 20.207032-27.378906 37.839844 0 9.039062 3.128906 17.296875 8.210938 24h-96.210938c-13.230469 0-24-10.765625-24-24zm128 0c0-13.230469 10.769531-24 24-24 4.417969 0 8-3.582031 8-8 0-22.054688 17.945312-40 40-40 17.515625 0 32.84375 11.21875 38.128906 27.90625 1.289063 4.070312 5.519532 6.421875 9.679688 5.3125 3.128906-.832031 5.730468-1.21875 8.191406-1.21875 6.074219 0 11.84375 1.761719 16.914062 4.953125 3.144532 22.929687 14.503907 43.894531 31.640626 59.046875h-152.554688c-13.230469 0-24-10.765625-24-24zm0 0"/><path d="m232 144c-13.230469 0-24 10.769531-24 24h16c0-4.40625 3.59375-8 8-8 4.410156 0 8 3.59375 8 8h16c0-13.230469-10.765625-24-24-24zm0 0"/><path d="m104 144c-13.230469 0-24 10.769531-24 24h16c0-4.40625 3.59375-8 8-8 4.410156 0 8 3.59375 8 8h16c0-13.230469-10.765625-24-24-24zm0 0"/></svg>