<svg id="Capa_1" enable-background="new 0 0 512 512" fill="#FFFFFF" height="512" viewBox="0 0 512 512" width="512" xmlns="http://www.w3.org/2000/svg"><g><path d="m460.015 75.716c-32.955-28.835-76.643-44.716-123.015-44.716s-90.06 15.881-123.015 44.716c-33.523 29.333-51.985 68.499-51.985 110.284 0 8.88.868 17.315 2.568 25.28-42.461 2.198-82.111 17.773-112.583 44.435-33.523 29.334-51.985 68.5-51.985 110.285 0 21.463 4.993 40.362 14.841 56.174 9.183 14.745 22.642 26.883 40.001 36.076 28.904 15.309 68.208 22.75 120.158 22.75s91.254-7.441 120.158-22.75c17.359-9.193 30.818-21.331 40.001-36.076 9.848-15.812 14.841-34.711 14.841-56.174 0-22.749-5.493-44.797-16.057-65.014 1.017.006 2.03.014 3.057.014 51.951 0 91.254-7.441 120.158-22.749 17.359-9.194 30.818-21.332 40.001-36.076 9.848-15.812 14.841-34.712 14.841-56.175 0-41.785-18.462-80.951-51.985-110.284zm-140.015 290.284c0 30.378-12.719 51.882-38.883 65.739-24.132 12.781-59.834 19.261-106.117 19.261s-81.985-6.48-106.117-19.261c-26.164-13.857-38.883-35.361-38.883-65.739 0-68.925 65.047-125 145-125 .38 0 .764.006 1.146.008.234.388.456.782.696 1.167 9.183 14.744 22.642 26.882 40.001 36.076 21.096 11.173 47.742 18.15 80.794 21.107 14.641 19.945 22.363 42.855 22.363 66.642zm123.117-114.261c-24.131 12.781-59.834 19.261-106.117 19.261s-81.986-6.48-106.117-19.261c-26.164-13.857-38.883-35.36-38.883-65.739 0-68.925 65.047-125 145-125s145 56.075 145 125c0 30.379-12.719 51.882-38.883 65.739z"/><path d="m337 91c-63.411 0-115 42.617-115 95 0 6.383 0 23.339 18.976 36.444 18.08 12.487 49.489 18.556 96.024 18.556s77.944-6.069 96.024-18.556c18.976-13.105 18.976-30.061 18.976-36.444 0-52.383-51.589-95-115-95zm78.976 106.759c-8.747 6.041-29.548 13.241-78.976 13.241s-70.229-7.2-78.976-13.241c-6.024-4.16-6.024-7.348-6.024-11.759 0-16.686 8.414-32.605 23.692-44.829 16.26-13.007 38.033-20.171 61.308-20.171 23.274 0 45.046 7.164 61.306 20.171 15.279 12.224 23.694 28.144 23.694 44.829 0 4.411 0 7.599-6.024 11.759z"/></g></svg>