<svg id="Capa_1" enable-background="new 0 0 512.126 512.126" fill="#FFFFFF" height="512" viewBox="0 0 512.126 512.126" width="512" xmlns="http://www.w3.org/2000/svg"><g><path d="m511.021 196.673c-2.04-6.28-6.702-11.318-12.791-13.823-31.543-12.979-66.112-18.073-99.961-14.734-27.227 2.686-54.035 10.796-78.446 23.646 4.678-27.187 4.105-55.189-1.756-81.915-7.287-33.229-22.815-64.528-44.904-90.518-4.265-5.017-10.498-7.894-17.101-7.894-6.604 0-12.835 2.878-17.099 7.894-22.089 25.988-37.616 57.288-44.902 90.516-5.859 26.724-6.431 54.727-1.753 81.913-24.41-12.85-51.22-20.958-78.448-23.643-33.859-3.339-68.422 1.759-99.963 14.735-6.089 2.505-10.751 7.543-12.792 13.822-2.041 6.28-1.23 13.098 2.223 18.702 17.891 29.039 42.86 53.479 72.21 70.676 23.605 13.831 50.062 23.027 77.362 26.979-19.764 19.245-35.76 42.237-46.728 67.304-13.635 31.166-19.471 65.615-16.876 99.624.501 6.564 3.853 12.556 9.194 16.438 3.884 2.82 8.501 4.297 13.19 4.297 1.763 0 3.535-.208 5.283-.633 33.146-8.041 64.105-24.236 89.53-46.836 20.448-18.176 37.37-40.494 49.565-65.238 12.195 24.743 29.119 47.063 49.569 65.238 25.427 22.599 56.387 38.794 89.533 46.836 6.399 1.551 13.132.216 18.474-3.665 5.342-3.882 8.693-9.872 9.194-16.437 2.595-34.009-3.241-68.457-16.878-99.621-10.967-25.064-26.964-48.056-46.729-67.301 27.301-3.952 53.757-13.15 77.363-26.983 29.35-17.198 54.32-41.639 72.211-70.678 3.457-5.605 4.266-12.422 2.226-18.701zm-21.175-1.006-143.652 46.676c-5.492-13.269-13.831-25.071-24.253-34.64 51.525-28.996 113.337-33.534 167.905-12.036zm-233.783 166.347c-45.49 0-82.5-37.01-82.5-82.5s37.01-82.5 82.5-82.5 82.5 37.01 82.5 82.5-37.009 82.5-82.5 82.5zm47.951-167.368c-12.115-6.872-25.836-11.23-40.45-12.347v-151.034c37.305 45.25 52.093 105.43 40.45 163.381zm-55.451-163.381v151.035c-14.612 1.117-28.331 5.473-40.444 12.344-11.645-57.954 3.14-118.133 40.444-163.379zm-230.917 178.668 55.124 17.911c.77.25 1.551.369 2.319.369 3.161 0 6.102-2.015 7.131-5.185 1.28-3.939-.876-8.17-4.815-9.45l-55.136-17.915c22.821-8.993 46.907-13.445 70.981-13.445 33.501 0 66.97 8.596 96.951 25.469-10.43 9.572-18.774 21.379-24.269 34.655l-59.997-19.494c-3.935-1.276-8.171.875-9.45 4.815-1.28 3.939.876 8.17 4.815 9.45l59.987 19.491c-1.777 7.35-2.725 15.02-2.725 22.908 0 6.63.668 13.106 1.935 19.368-58.7-6.84-111.352-39.496-142.851-88.947zm149.729 110.066c5.971 13.028 14.731 24.52 25.51 33.713l-88.807 122.232c-3.582-58.532 19.822-115.906 63.297-155.945zm-51.161 164.761 88.795-122.216c11.876 7.329 25.433 12.18 39.948 13.833-24.646 53.718-71.975 93.705-128.743 108.383zm150.95-108.382c14.517-1.653 28.076-6.504 39.954-13.834l88.795 122.216c-56.772-14.679-104.103-54.665-128.749-108.382zm140.885 99.567-88.808-122.233c10.778-9.191 19.537-20.681 25.508-33.707 43.477 40.04 66.883 97.412 63.3 155.94zm-56.422-177.058c1.268-6.263 1.936-12.742 1.936-19.374 0-7.888-.948-15.558-2.725-22.909l143.642-46.672c-31.502 49.456-84.153 82.113-142.853 88.955z"/><path d="m256.063 212.014c-37.22 0-67.5 30.28-67.5 67.5s30.28 67.5 67.5 67.5 67.5-30.28 67.5-67.5-30.28-67.5-67.5-67.5zm0 120c-28.948 0-52.5-23.552-52.5-52.5s23.552-52.5 52.5-52.5 52.5 23.552 52.5 52.5-23.551 52.5-52.5 52.5z"/><path d="m291.727 267.925c-2.488-7.659-8.762-13.248-16.362-14.979-3.995-6.693-11.248-10.933-19.302-10.933s-15.308 4.239-19.302 10.933c-7.601 1.731-13.874 7.319-16.362 14.979-2.489 7.66-.698 15.868 4.433 21.736-.702 7.764 2.674 15.457 9.189 20.191 3.954 2.872 8.588 4.308 13.221 4.308 3.002 0 6.004-.603 8.821-1.808 7.167 3.064 15.526 2.232 22.042-2.501s9.892-12.427 9.189-20.19c5.132-5.868 6.923-14.076 4.433-21.736zm-16.992 13.018c-2.631 1.91-3.731 5.297-2.726 8.389 1.008 3.101-.086 6.471-2.721 8.385-2.636 1.916-6.178 1.914-8.815-.003-2.629-1.912-6.191-1.912-8.82 0-2.637 1.917-6.179 1.918-8.815.004-2.635-1.915-3.729-5.285-2.721-8.386 1.006-3.092-.095-6.479-2.726-8.389-2.638-1.915-3.733-5.283-2.727-8.382 1.007-3.098 3.872-5.179 7.131-5.179 3.255 0 6.136-2.094 7.139-5.185 1.006-3.101 3.871-5.184 7.129-5.184s6.123 2.083 7.129 5.184c1.003 3.092 3.884 5.185 7.139 5.185 3.259 0 6.124 2.081 7.131 5.18 1.007 3.097-.089 6.466-2.727 8.381z"/></g></svg>